<svg id="svg" version="1.1" xmlns="http://www.w3.org/2000/svg" xmlns:xlink="http://www.w3.org/1999/xlink" width="400" height="400" viewBox="0, 0, 400,400"><g id="svgg"><path id="path0" d="M178.700 0.275 C 176.555 0.360,174.800 0.602,174.800 0.814 C 174.800 1.027,173.540 1.200,172.000 1.200 C 170.400 1.200,169.200 1.371,169.200 1.600 C 169.200 1.822,168.133 2.000,166.800 2.000 C 165.467 2.000,164.400 2.178,164.400 2.400 C 164.400 2.620,163.410 2.800,162.200 2.800 C 160.990 2.800,160.000 2.980,160.000 3.200 C 160.000 3.420,159.201 3.600,158.224 3.600 C 157.247 3.600,156.336 3.780,156.200 4.000 C 156.064 4.220,155.243 4.400,154.376 4.400 C 153.509 4.400,152.800 4.580,152.800 4.800 C 152.800 5.020,152.080 5.200,151.200 5.200 C 150.320 5.200,149.600 5.360,149.600 5.556 C 149.600 5.752,148.970 6.022,148.200 6.156 C 147.430 6.290,146.170 6.510,145.400 6.644 C 144.630 6.778,144.000 7.048,144.000 7.244 C 144.000 7.440,143.370 7.600,142.600 7.600 C 141.830 7.600,141.200 7.750,141.200 7.933 C 141.200 8.226,140.298 8.468,135.500 9.463 C 134.895 9.588,134.400 9.850,134.400 10.045 C 134.400 10.240,134.048 10.400,133.619 10.400 C 132.836 10.400,132.066 10.671,128.904 12.057 C 127.972 12.465,126.847 12.800,126.404 12.800 C 125.962 12.800,125.600 12.980,125.600 13.200 C 125.600 13.420,125.240 13.600,124.800 13.600 C 124.360 13.600,124.000 13.780,124.000 14.000 C 124.000 14.220,123.561 14.400,123.024 14.400 C 122.487 14.400,121.936 14.580,121.800 14.800 C 121.664 15.020,121.203 15.200,120.776 15.200 C 120.349 15.200,120.000 15.380,120.000 15.600 C 120.000 15.820,119.640 16.000,119.200 16.000 C 118.760 16.000,118.400 16.180,118.400 16.400 C 118.400 16.620,118.040 16.800,117.600 16.800 C 117.160 16.800,116.800 16.980,116.800 17.200 C 116.800 17.420,116.445 17.600,116.012 17.600 C 115.579 17.600,114.583 17.960,113.800 18.400 C 113.017 18.840,112.111 19.200,111.788 19.200 C 111.465 19.200,111.200 19.346,111.200 19.525 C 111.200 19.704,110.570 20.098,109.800 20.400 C 109.030 20.702,108.400 21.096,108.400 21.275 C 108.400 21.454,108.055 21.600,107.633 21.600 C 107.212 21.600,106.807 21.735,106.733 21.900 C 106.660 22.065,105.745 22.633,104.700 23.163 C 103.655 23.692,102.800 24.277,102.800 24.463 C 102.800 24.648,102.524 24.800,102.187 24.800 C 101.419 24.800,97.447 26.779,97.267 27.251 C 97.193 27.443,96.878 27.600,96.567 27.600 C 96.255 27.600,96.000 27.780,96.000 28.000 C 96.000 28.220,95.764 28.400,95.475 28.400 C 95.187 28.400,94.564 28.760,94.092 29.200 C 93.620 29.640,92.996 30.000,92.705 30.000 C 92.414 30.000,91.917 30.360,91.600 30.800 C 91.283 31.240,90.827 31.600,90.587 31.600 C 90.347 31.600,89.802 31.915,89.375 32.300 C 88.949 32.685,88.105 33.255,87.500 33.568 C 86.895 33.880,86.400 34.285,86.400 34.468 C 86.400 34.650,86.080 34.800,85.688 34.800 C 85.297 34.800,84.717 35.160,84.400 35.600 C 84.083 36.040,83.575 36.400,83.272 36.400 C 82.969 36.400,82.217 36.940,81.600 37.600 C 80.983 38.260,80.326 38.801,80.140 38.802 C 79.953 38.803,79.225 39.343,78.522 40.002 C 77.819 40.661,77.120 41.200,76.969 41.200 C 76.817 41.200,76.358 41.588,75.947 42.061 C 75.536 42.535,75.200 42.803,75.200 42.658 C 75.200 42.512,74.633 42.935,73.941 43.597 C 73.248 44.258,72.545 44.800,72.377 44.800 C 72.210 44.800,71.240 45.610,70.221 46.600 C 69.203 47.590,68.215 48.400,68.025 48.400 C 67.836 48.400,65.689 50.380,63.254 52.800 C 60.818 55.220,58.946 57.200,59.094 57.200 C 59.242 57.200,58.952 57.515,58.451 57.900 C 57.106 58.933,49.600 66.374,49.600 66.675 C 49.600 66.817,49.335 67.218,49.011 67.566 C 48.686 67.915,47.608 69.070,46.615 70.132 C 45.621 71.195,44.410 72.635,43.923 73.332 C 43.437 74.030,42.850 74.732,42.619 74.894 C 42.389 75.056,42.363 75.191,42.561 75.194 C 42.760 75.197,42.535 75.536,42.061 75.947 C 41.588 76.358,41.200 76.833,41.200 77.004 C 41.200 77.174,40.660 77.829,40.000 78.460 C 39.340 79.091,38.800 79.787,38.800 80.007 C 38.800 80.227,38.260 80.972,37.600 81.663 C 36.940 82.354,36.400 83.122,36.400 83.371 C 36.400 83.620,36.040 84.083,35.600 84.400 C 35.160 84.717,34.800 85.257,34.800 85.600 C 34.800 85.943,34.440 86.483,34.000 86.800 C 33.560 87.117,33.200 87.657,33.200 88.000 C 33.200 88.343,32.840 88.883,32.400 89.200 C 31.960 89.517,31.600 90.057,31.600 90.400 C 31.600 90.743,31.240 91.283,30.800 91.600 C 30.360 91.917,30.000 92.329,30.000 92.516 C 30.000 92.703,29.460 93.641,28.800 94.600 C 28.140 95.559,27.600 96.522,27.600 96.739 C 27.600 96.956,27.465 97.193,27.300 97.267 C 26.826 97.477,24.800 101.438,24.800 102.154 C 24.800 102.509,24.620 102.800,24.400 102.800 C 24.180 102.800,24.000 103.036,24.000 103.325 C 24.000 103.613,23.640 104.236,23.200 104.708 C 22.760 105.180,22.400 105.829,22.400 106.150 C 22.400 106.471,22.177 106.808,21.904 106.899 C 21.228 107.124,20.708 106.671,35.800 119.009 C 43.060 124.944,49.360 130.098,49.800 130.461 C 50.240 130.825,52.310 132.537,54.400 134.265 C 56.490 135.994,58.674 137.766,59.254 138.204 C 60.356 139.036,70.267 147.163,72.000 148.655 C 72.550 149.128,76.150 152.065,80.000 155.181 C 83.850 158.297,87.317 161.106,87.705 161.423 C 88.622 162.175,88.611 162.181,88.716 160.900 C 88.766 160.295,88.985 159.740,89.203 159.667 C 89.422 159.593,89.600 159.222,89.600 158.842 C 89.600 158.461,89.975 157.374,90.433 156.426 C 90.891 155.477,91.365 154.094,91.485 153.351 C 91.606 152.608,91.861 152.000,92.052 152.000 C 92.244 152.000,92.400 151.640,92.400 151.200 C 92.400 150.760,92.580 150.400,92.800 150.400 C 93.020 150.400,93.200 150.040,93.200 149.600 C 93.200 149.160,93.380 148.800,93.600 148.800 C 93.820 148.800,94.000 148.440,94.000 148.000 C 94.000 147.560,94.180 147.200,94.400 147.200 C 94.620 147.200,94.800 146.840,94.800 146.400 C 94.800 145.960,94.980 145.600,95.200 145.600 C 95.420 145.600,95.600 145.240,95.600 144.800 C 95.600 144.360,95.780 144.000,96.000 144.000 C 96.220 144.000,96.400 143.706,96.400 143.347 C 96.400 142.988,96.729 142.403,97.130 142.047 C 97.532 141.691,98.116 140.815,98.428 140.100 C 98.740 139.385,99.131 138.800,99.298 138.800 C 99.464 138.800,99.600 138.530,99.600 138.200 C 99.600 137.870,99.780 137.600,100.000 137.600 C 100.220 137.600,100.400 137.330,100.400 137.000 C 100.400 136.670,100.580 136.400,100.800 136.400 C 101.020 136.400,101.200 136.175,101.200 135.900 C 101.201 135.625,101.606 134.918,102.100 134.330 C 102.595 133.741,103.310 132.751,103.689 132.130 C 104.991 129.993,105.402 129.410,106.028 128.806 C 106.374 128.473,107.000 127.612,107.418 126.894 C 109.286 123.690,123.296 109.722,126.956 107.416 C 127.640 106.984,128.491 106.309,128.847 105.916 C 129.203 105.522,129.744 105.200,130.051 105.200 C 130.357 105.200,130.832 104.840,131.107 104.400 C 131.382 103.960,131.849 103.600,132.144 103.600 C 132.440 103.600,133.246 103.060,133.937 102.400 C 134.628 101.740,135.464 101.200,135.796 101.200 C 136.128 101.200,136.400 101.020,136.400 100.800 C 136.400 100.580,136.636 100.400,136.925 100.400 C 137.213 100.400,137.798 100.085,138.225 99.700 C 138.651 99.315,139.540 98.731,140.200 98.403 C 140.860 98.074,141.691 97.489,142.047 97.103 C 142.403 96.716,142.988 96.400,143.347 96.400 C 143.706 96.400,144.000 96.220,144.000 96.000 C 144.000 95.780,144.360 95.600,144.800 95.600 C 145.240 95.600,145.600 95.420,145.600 95.200 C 145.600 94.980,145.960 94.800,146.400 94.800 C 146.840 94.800,147.200 94.620,147.200 94.400 C 147.200 94.180,147.560 94.000,148.000 94.000 C 148.440 94.000,148.800 93.820,148.800 93.600 C 148.800 93.380,149.160 93.200,149.600 93.200 C 150.040 93.200,150.400 93.020,150.400 92.800 C 150.400 92.580,150.760 92.400,151.200 92.400 C 151.640 92.400,152.000 92.220,152.000 92.000 C 152.000 91.780,152.370 91.600,152.822 91.600 C 153.274 91.600,154.894 91.068,156.422 90.418 C 157.950 89.768,159.203 89.363,159.206 89.518 C 159.209 89.673,159.355 89.576,159.529 89.302 C 159.702 89.028,160.330 88.764,160.922 88.715 C 161.515 88.666,162.000 88.485,162.000 88.313 C 162.000 88.141,162.540 88.000,163.200 88.000 C 163.860 88.000,164.400 87.820,164.400 87.600 C 164.400 87.380,164.940 87.200,165.600 87.200 C 166.260 87.200,166.800 87.020,166.800 86.800 C 166.800 86.580,167.419 86.400,168.176 86.400 C 168.933 86.400,169.664 86.220,169.800 86.000 C 169.936 85.780,170.667 85.600,171.424 85.600 C 172.181 85.600,172.800 85.420,172.800 85.200 C 172.800 84.980,173.520 84.800,174.400 84.800 C 175.280 84.800,176.000 84.620,176.000 84.400 C 176.000 84.180,176.889 84.000,177.976 84.000 C 179.063 84.000,180.064 83.820,180.200 83.600 C 180.336 83.380,181.607 83.200,183.024 83.200 C 184.475 83.200,185.600 83.025,185.600 82.800 C 185.600 82.558,187.325 82.400,189.976 82.400 C 192.463 82.400,194.460 82.227,194.600 82.000 C 194.932 81.463,205.200 81.463,205.200 82.000 C 205.200 82.243,207.000 82.400,209.800 82.400 C 212.600 82.400,214.400 82.557,214.400 82.800 C 214.400 83.025,215.525 83.200,216.976 83.200 C 218.393 83.200,219.664 83.380,219.800 83.600 C 219.936 83.820,220.937 84.000,222.024 84.000 C 223.111 84.000,224.000 84.180,224.000 84.400 C 224.000 84.620,224.720 84.800,225.600 84.800 C 226.480 84.800,227.200 84.980,227.200 85.200 C 227.200 85.420,227.819 85.600,228.576 85.600 C 229.333 85.600,230.064 85.780,230.200 86.000 C 230.336 86.220,231.067 86.400,231.824 86.400 C 232.581 86.400,233.200 86.580,233.200 86.800 C 233.200 87.020,233.740 87.200,234.400 87.200 C 235.060 87.200,235.600 87.341,235.600 87.513 C 235.600 87.685,236.095 87.866,236.700 87.916 C 237.305 87.966,237.860 88.185,237.933 88.403 C 238.007 88.622,238.592 88.800,239.233 88.800 C 239.875 88.800,240.400 88.950,240.400 89.133 C 240.400 89.317,240.625 89.474,240.900 89.482 C 241.651 89.506,242.575 89.771,242.800 90.028 C 243.167 90.445,246.405 91.600,247.208 91.600 C 247.644 91.600,248.000 91.780,248.000 92.000 C 248.000 92.220,248.360 92.400,248.800 92.400 C 249.240 92.400,249.600 92.580,249.600 92.800 C 249.600 93.020,249.960 93.200,250.400 93.200 C 250.840 93.200,251.200 93.380,251.200 93.600 C 251.200 93.820,251.560 94.000,252.000 94.000 C 252.440 94.000,252.800 94.180,252.800 94.400 C 252.800 94.620,253.160 94.800,253.600 94.800 C 254.040 94.800,254.400 94.980,254.400 95.200 C 254.400 95.420,254.760 95.600,255.200 95.600 C 255.640 95.600,256.000 95.780,256.000 96.000 C 256.000 96.220,256.294 96.400,256.653 96.400 C 257.012 96.400,257.597 96.729,257.953 97.130 C 258.309 97.532,259.185 98.116,259.900 98.428 C 260.615 98.740,261.200 99.131,261.200 99.298 C 261.200 100.329,264.019 99.488,265.552 98.000 C 266.459 97.120,267.395 96.400,267.632 96.400 C 267.869 96.400,268.754 95.680,269.600 94.800 C 270.446 93.920,271.313 93.200,271.527 93.200 C 271.741 93.200,272.743 92.418,273.755 91.463 C 274.766 90.508,275.654 89.787,275.728 89.861 C 275.801 89.935,276.706 89.186,277.738 88.198 C 278.770 87.209,279.773 86.400,279.967 86.400 C 280.160 86.400,281.238 85.500,282.361 84.400 C 283.485 83.300,284.597 82.400,284.833 82.400 C 285.070 82.400,285.954 81.680,286.800 80.800 C 287.646 79.920,288.469 79.200,288.631 79.200 C 288.793 79.200,289.631 78.480,290.493 77.600 C 291.356 76.720,292.201 76.000,292.371 76.000 C 292.542 76.000,293.248 75.458,293.941 74.797 C 294.633 74.135,295.200 73.693,295.200 73.815 C 295.200 73.937,295.641 73.623,296.181 73.118 C 297.690 71.705,298.400 71.148,298.400 71.377 C 298.400 71.492,299.242 70.780,300.272 69.793 C 301.301 68.807,302.273 68.000,302.432 68.000 C 302.590 68.000,303.350 67.370,304.120 66.600 C 304.890 65.830,305.656 65.200,305.822 65.200 C 305.988 65.200,306.809 64.480,307.646 63.600 C 308.483 62.720,309.337 62.000,309.543 62.000 C 309.750 62.000,310.838 61.100,311.961 60.000 C 313.085 58.900,314.207 58.000,314.455 58.000 C 314.703 58.000,315.242 57.612,315.653 57.139 C 316.064 56.665,316.400 56.414,316.400 56.581 C 316.400 56.748,316.922 56.326,317.560 55.642 C 318.199 54.959,318.897 54.400,319.112 54.400 C 319.327 54.400,320.245 53.680,321.152 52.800 C 322.059 51.920,322.991 51.200,323.224 51.200 C 323.457 51.200,323.536 51.020,323.400 50.800 C 323.264 50.580,323.361 50.400,323.616 50.400 C 323.871 50.400,324.583 49.860,325.200 49.200 C 325.817 48.540,326.491 48.000,326.698 48.000 C 327.364 48.000,328.400 46.566,328.400 45.645 C 328.400 45.154,328.254 44.843,328.075 44.954 C 327.896 45.064,326.951 44.446,325.975 43.580 C 323.486 41.372,323.268 41.200,322.960 41.200 C 322.810 41.200,322.171 40.660,321.540 40.000 C 320.909 39.340,320.205 38.800,319.975 38.800 C 319.745 38.800,318.981 38.261,318.278 37.602 C 317.575 36.943,316.815 36.403,316.588 36.402 C 316.362 36.401,315.917 36.040,315.600 35.600 C 315.283 35.160,314.743 34.800,314.400 34.800 C 314.057 34.800,313.517 34.440,313.200 34.000 C 312.883 33.560,312.343 33.200,312.000 33.200 C 311.657 33.200,311.117 32.840,310.800 32.400 C 310.483 31.960,309.943 31.600,309.600 31.600 C 309.257 31.600,308.717 31.240,308.400 30.800 C 308.083 30.360,307.671 30.000,307.484 30.000 C 307.297 30.000,306.359 29.460,305.400 28.800 C 304.441 28.140,303.463 27.600,303.228 27.600 C 302.993 27.600,302.800 27.390,302.800 27.133 C 302.800 26.877,302.695 26.771,302.567 26.899 C 302.440 27.027,301.675 26.684,300.867 26.136 C 300.060 25.588,298.905 25.041,298.300 24.920 C 297.695 24.799,297.200 24.543,297.200 24.350 C 297.200 24.157,296.964 24.000,296.675 24.000 C 296.387 24.000,295.764 23.640,295.292 23.200 C 294.820 22.760,294.156 22.400,293.817 22.400 C 293.478 22.400,293.200 22.220,293.200 22.000 C 293.200 21.780,292.840 21.600,292.400 21.600 C 291.960 21.600,291.600 21.420,291.600 21.200 C 291.600 20.980,291.255 20.800,290.833 20.800 C 290.412 20.800,290.007 20.665,289.933 20.500 C 289.720 20.020,284.670 17.588,283.900 17.594 C 283.515 17.597,283.200 17.420,283.200 17.200 C 283.200 16.980,282.840 16.800,282.400 16.800 C 281.960 16.800,281.600 16.620,281.600 16.400 C 281.600 16.180,281.240 16.000,280.800 16.000 C 280.360 16.000,280.000 15.820,280.000 15.600 C 280.000 15.380,279.550 15.200,279.000 15.200 C 278.450 15.200,278.000 15.020,278.000 14.800 C 278.000 14.580,277.550 14.400,277.000 14.400 C 276.450 14.400,276.000 14.220,276.000 14.000 C 276.000 13.780,275.651 13.600,275.224 13.600 C 274.797 13.600,274.336 13.420,274.200 13.200 C 274.064 12.980,273.691 12.800,273.372 12.800 C 273.053 12.800,272.028 12.456,271.096 12.036 C 268.349 10.798,260.907 8.400,259.811 8.400 C 259.255 8.400,258.800 8.220,258.800 8.000 C 258.800 7.780,258.069 7.600,257.176 7.600 C 256.196 7.600,255.651 7.442,255.800 7.200 C 255.944 6.967,255.537 6.800,254.824 6.800 C 254.151 6.800,253.600 6.620,253.600 6.400 C 253.600 6.180,252.880 6.000,252.000 6.000 C 251.120 6.000,250.400 5.820,250.400 5.600 C 250.400 5.380,249.680 5.200,248.800 5.200 C 247.920 5.200,247.200 5.020,247.200 4.800 C 247.200 4.580,246.426 4.400,245.480 4.400 C 244.534 4.400,243.589 4.238,243.380 4.041 C 243.027 3.708,242.216 3.552,237.700 2.947 C 236.765 2.822,236.000 2.558,236.000 2.360 C 236.000 2.162,234.830 2.000,233.400 2.000 C 231.933 2.000,230.800 1.826,230.800 1.600 C 230.800 1.372,229.611 1.200,228.033 1.200 C 226.204 1.200,225.211 1.034,225.103 0.709 C 224.941 0.224,188.617 -0.116,178.700 0.275 " stroke="none" fill="#f44434" fill-rule="evenodd"></path><path id="path1" d="M88.800 241.912 C 88.470 242.029,86.850 243.221,85.200 244.561 C 83.550 245.901,81.857 247.268,81.437 247.599 C 81.018 247.929,80.028 248.750,79.237 249.422 C 78.447 250.094,73.840 253.864,69.000 257.800 C 64.160 261.736,58.760 266.153,57.000 267.616 C 55.240 269.079,50.110 273.288,45.600 276.970 C 41.090 280.651,36.680 284.257,35.800 284.983 C 28.083 291.345,24.122 294.523,23.700 294.689 C 22.974 294.974,23.086 295.727,24.000 296.708 C 24.440 297.180,24.800 297.760,24.800 297.997 C 24.800 298.629,26.843 302.578,27.251 302.733 C 27.443 302.807,27.600 303.044,27.600 303.261 C 27.600 303.478,28.140 304.441,28.800 305.400 C 29.460 306.359,30.000 307.297,30.000 307.484 C 30.000 307.671,30.360 308.083,30.800 308.400 C 31.240 308.717,31.600 309.257,31.600 309.600 C 31.600 309.943,31.960 310.483,32.400 310.800 C 32.840 311.117,33.200 311.657,33.200 312.000 C 33.200 312.343,33.560 312.883,34.000 313.200 C 34.440 313.517,34.800 314.057,34.800 314.400 C 34.800 314.743,35.160 315.283,35.600 315.600 C 36.040 315.917,36.400 316.380,36.400 316.629 C 36.400 316.878,36.940 317.646,37.600 318.337 C 38.260 319.028,38.800 319.748,38.800 319.937 C 38.800 320.126,39.340 320.846,40.000 321.537 C 40.660 322.228,41.200 322.892,41.200 323.013 C 41.200 323.264,41.505 323.650,43.199 325.542 C 43.859 326.281,44.400 327.042,44.400 327.234 C 44.400 327.426,45.390 328.573,46.600 329.783 C 47.810 330.993,48.800 332.172,48.800 332.404 C 48.800 332.636,50.825 334.806,53.300 337.226 C 55.775 339.647,57.980 341.812,58.200 342.038 C 63.186 347.156,67.744 351.600,68.008 351.600 C 68.194 351.600,69.271 352.500,70.400 353.600 C 71.529 354.700,72.602 355.600,72.784 355.600 C 72.966 355.600,73.671 356.095,74.349 356.700 C 76.312 358.449,76.752 358.800,76.987 358.800 C 77.108 358.800,77.772 359.340,78.463 360.000 C 79.154 360.660,79.874 361.200,80.063 361.200 C 80.252 361.200,80.972 361.740,81.663 362.400 C 82.354 363.060,83.122 363.600,83.371 363.600 C 83.620 363.600,84.083 363.960,84.400 364.400 C 84.717 364.840,85.257 365.200,85.600 365.200 C 85.943 365.200,86.483 365.560,86.800 366.000 C 87.117 366.440,87.657 366.800,88.000 366.800 C 88.343 366.800,88.883 367.160,89.200 367.600 C 89.517 368.040,90.057 368.400,90.400 368.400 C 90.743 368.400,91.283 368.760,91.600 369.200 C 91.917 369.640,92.329 370.000,92.516 370.000 C 92.703 370.000,93.641 370.540,94.600 371.200 C 95.559 371.860,96.522 372.400,96.739 372.400 C 96.956 372.400,97.193 372.535,97.267 372.700 C 97.477 373.174,101.438 375.200,102.154 375.200 C 102.509 375.200,102.800 375.380,102.800 375.600 C 102.800 375.820,103.036 376.000,103.325 376.000 C 103.613 376.000,104.236 376.360,104.708 376.800 C 105.180 377.240,105.844 377.600,106.183 377.600 C 106.522 377.600,106.800 377.780,106.800 378.000 C 106.800 378.220,107.160 378.400,107.600 378.400 C 108.040 378.400,108.400 378.580,108.400 378.800 C 108.400 379.020,108.760 379.200,109.200 379.200 C 109.640 379.200,110.000 379.346,110.000 379.525 C 110.000 379.704,110.630 380.098,111.400 380.400 C 112.170 380.702,112.800 381.096,112.800 381.275 C 112.800 381.454,113.149 381.600,113.576 381.600 C 114.003 381.600,114.464 381.780,114.600 382.000 C 114.736 382.220,115.287 382.400,115.824 382.400 C 116.361 382.400,116.800 382.580,116.800 382.800 C 116.800 383.020,117.160 383.200,117.600 383.200 C 118.040 383.200,118.400 383.380,118.400 383.600 C 118.400 383.820,118.745 384.000,119.167 384.000 C 119.588 384.000,119.993 384.178,120.067 384.397 C 120.140 384.615,120.695 384.834,121.300 384.884 C 121.905 384.934,122.400 385.115,122.400 385.287 C 122.400 385.459,122.760 385.600,123.200 385.600 C 123.640 385.600,124.000 385.780,124.000 386.000 C 124.000 386.220,124.360 386.400,124.800 386.400 C 125.240 386.400,125.600 386.580,125.600 386.800 C 125.600 387.020,125.962 387.200,126.405 387.200 C 126.848 387.200,127.523 387.359,127.905 387.553 C 128.287 387.748,129.140 388.129,129.800 388.400 C 130.460 388.671,131.313 389.052,131.695 389.247 C 132.077 389.441,132.664 389.600,133.000 389.600 C 133.336 389.600,133.923 389.763,134.305 389.963 C 135.447 390.560,139.222 391.600,140.246 391.600 C 140.771 391.600,141.200 391.780,141.200 392.000 C 141.200 392.220,141.830 392.400,142.600 392.400 C 143.370 392.400,144.000 392.580,144.000 392.800 C 144.000 393.020,144.529 393.200,145.176 393.200 C 145.823 393.200,146.464 393.380,146.600 393.600 C 146.736 393.820,147.467 394.000,148.224 394.000 C 148.981 394.000,149.600 394.180,149.600 394.400 C 149.600 394.620,150.320 394.800,151.200 394.800 C 152.080 394.800,152.800 394.980,152.800 395.200 C 152.800 395.420,153.599 395.600,154.576 395.600 C 155.553 395.600,156.464 395.780,156.600 396.000 C 156.736 396.220,157.557 396.400,158.424 396.400 C 159.291 396.400,160.000 396.580,160.000 396.800 C 160.000 397.020,160.889 397.200,161.976 397.200 C 163.063 397.200,164.064 397.380,164.200 397.600 C 164.336 397.820,165.517 398.000,166.824 398.000 C 168.141 398.000,169.200 398.178,169.200 398.400 C 169.200 398.628,170.389 398.800,171.967 398.800 C 173.824 398.800,174.788 398.964,174.900 399.300 C 175.031 399.693,180.409 399.800,200.000 399.800 C 219.591 399.800,224.969 399.693,225.100 399.300 C 225.212 398.964,226.176 398.800,228.033 398.800 C 229.611 398.800,230.800 398.628,230.800 398.400 C 230.800 398.178,231.859 398.000,233.176 398.000 C 234.483 398.000,235.664 397.820,235.800 397.600 C 235.936 397.380,236.836 397.200,237.800 397.200 C 238.764 397.200,239.664 397.020,239.800 396.800 C 239.936 396.580,240.836 396.400,241.800 396.400 C 242.764 396.400,243.664 396.220,243.800 396.000 C 243.936 395.780,244.757 395.600,245.624 395.600 C 246.491 395.600,247.200 395.420,247.200 395.200 C 247.200 394.980,247.920 394.800,248.800 394.800 C 249.680 394.800,250.400 394.620,250.400 394.400 C 250.400 394.180,251.019 394.000,251.776 394.000 C 252.533 394.000,253.264 393.820,253.400 393.600 C 253.536 393.380,254.177 393.200,254.824 393.200 C 255.471 393.200,256.000 393.020,256.000 392.800 C 256.000 392.580,256.630 392.400,257.400 392.400 C 258.170 392.400,258.800 392.220,258.800 392.000 C 258.800 391.780,259.238 391.600,259.772 391.600 C 260.759 391.600,266.823 389.823,268.095 389.161 C 268.477 388.963,269.062 388.800,269.395 388.800 C 269.728 388.800,270.000 388.620,270.000 388.400 C 270.000 388.180,270.439 388.000,270.976 388.000 C 271.513 388.000,272.064 387.820,272.200 387.600 C 272.336 387.380,272.887 387.200,273.424 387.200 C 273.961 387.200,274.400 387.020,274.400 386.800 C 274.400 386.580,274.760 386.400,275.200 386.400 C 275.640 386.400,276.000 386.220,276.000 386.000 C 276.000 385.780,276.439 385.600,276.976 385.600 C 277.513 385.600,278.064 385.420,278.200 385.200 C 278.336 384.980,278.797 384.800,279.224 384.800 C 279.651 384.800,280.000 384.620,280.000 384.400 C 280.000 384.180,280.360 384.000,280.800 384.000 C 281.240 384.000,281.600 383.820,281.600 383.600 C 281.600 383.380,281.915 383.201,282.300 383.203 C 283.076 383.206,291.322 379.189,291.533 378.705 C 291.607 378.537,292.012 378.400,292.433 378.400 C 292.855 378.400,293.200 378.220,293.200 378.000 C 293.200 377.780,293.478 377.600,293.817 377.600 C 294.156 377.600,294.820 377.240,295.292 376.800 C 295.764 376.360,296.387 376.000,296.675 376.000 C 296.964 376.000,297.200 375.820,297.200 375.600 C 297.200 375.380,297.491 375.200,297.846 375.200 C 298.562 375.200,302.523 373.174,302.733 372.700 C 302.807 372.535,303.044 372.400,303.261 372.400 C 303.478 372.400,304.441 371.860,305.400 371.200 C 306.359 370.540,307.297 370.000,307.484 370.000 C 307.671 370.000,308.083 369.640,308.400 369.200 C 308.717 368.760,309.257 368.400,309.600 368.400 C 309.943 368.400,310.483 368.040,310.800 367.600 C 311.117 367.160,311.657 366.800,312.000 366.800 C 312.343 366.800,312.883 366.440,313.200 366.000 C 313.517 365.560,314.057 365.200,314.400 365.200 C 314.743 365.200,315.283 364.840,315.600 364.400 C 315.917 363.960,316.380 363.600,316.629 363.600 C 316.878 363.600,317.646 363.060,318.337 362.400 C 319.028 361.740,319.792 361.200,320.036 361.200 C 320.280 361.200,320.983 360.660,321.600 360.000 C 322.217 359.340,322.919 358.800,323.160 358.800 C 323.402 358.800,323.600 358.632,323.600 358.427 C 323.600 358.222,323.960 357.940,324.400 357.800 C 325.751 357.371,325.350 355.932,323.488 354.527 C 322.559 353.826,321.440 352.922,321.000 352.517 C 320.230 351.808,318.934 350.746,306.033 340.258 C 302.825 337.649,299.390 334.838,298.400 334.010 C 296.389 332.329,289.174 326.415,282.800 321.222 C 267.537 308.788,260.202 302.698,260.067 302.346 C 259.824 301.715,258.586 301.987,258.000 302.800 C 257.683 303.240,257.103 303.600,256.712 303.600 C 256.320 303.600,256.000 303.780,256.000 304.000 C 256.000 304.220,255.640 304.400,255.200 304.400 C 254.760 304.400,254.400 304.580,254.400 304.800 C 254.400 305.020,254.040 305.200,253.600 305.200 C 253.160 305.200,252.800 305.380,252.800 305.600 C 252.800 305.820,252.440 306.000,252.000 306.000 C 251.560 306.000,251.200 306.180,251.200 306.400 C 251.200 306.620,250.840 306.800,250.400 306.800 C 249.960 306.800,249.600 306.980,249.600 307.200 C 249.600 307.420,249.240 307.600,248.800 307.600 C 248.360 307.600,248.000 307.739,248.000 307.909 C 248.000 308.079,247.235 308.413,246.300 308.650 C 243.986 309.239,240.630 310.533,240.467 310.900 C 240.393 311.065,239.808 311.200,239.167 311.200 C 238.525 311.200,238.000 311.380,238.000 311.600 C 238.000 311.820,237.460 312.000,236.800 312.000 C 236.140 312.000,235.600 312.180,235.600 312.400 C 235.600 312.620,235.060 312.800,234.400 312.800 C 233.740 312.800,233.200 312.980,233.200 313.200 C 233.200 313.420,232.581 313.600,231.824 313.600 C 231.067 313.600,230.336 313.780,230.200 314.000 C 230.064 314.220,229.434 314.400,228.800 314.400 C 228.166 314.400,227.536 314.580,227.400 314.800 C 227.264 315.020,226.443 315.200,225.576 315.200 C 224.709 315.200,224.000 315.380,224.000 315.600 C 224.000 315.820,223.111 316.000,222.024 316.000 C 220.937 316.000,219.936 316.180,219.800 316.400 C 219.664 316.620,218.393 316.800,216.976 316.800 C 215.525 316.800,214.400 316.975,214.400 317.200 C 214.400 317.443,212.600 317.600,209.800 317.600 C 207.000 317.600,205.200 317.757,205.200 318.000 C 205.200 318.246,203.200 318.400,200.000 318.400 C 196.800 318.400,194.800 318.246,194.800 318.000 C 194.800 317.757,193.000 317.600,190.200 317.600 C 187.400 317.600,185.600 317.443,185.600 317.200 C 185.600 316.978,184.541 316.800,183.224 316.800 C 181.917 316.800,180.736 316.620,180.600 316.400 C 180.464 316.180,179.373 316.000,178.176 316.000 C 176.979 316.000,176.000 315.820,176.000 315.600 C 176.000 315.380,175.280 315.200,174.400 315.200 C 173.520 315.200,172.800 315.020,172.800 314.800 C 172.800 314.580,172.181 314.400,171.424 314.400 C 170.667 314.400,169.936 314.220,169.800 314.000 C 169.664 313.780,168.933 313.600,168.176 313.600 C 167.419 313.600,166.800 313.420,166.800 313.200 C 166.800 312.980,166.260 312.800,165.600 312.800 C 164.940 312.800,164.400 312.620,164.400 312.400 C 164.400 312.180,163.860 312.000,163.200 312.000 C 162.540 312.000,162.000 311.820,162.000 311.600 C 162.000 311.380,161.460 311.200,160.800 311.200 C 160.140 311.200,159.600 311.020,159.600 310.800 C 159.600 310.580,159.335 310.400,159.011 310.400 C 158.688 310.400,157.405 309.950,156.162 309.400 C 154.918 308.850,153.473 308.400,152.950 308.400 C 152.428 308.400,152.000 308.220,152.000 308.000 C 152.000 307.780,151.640 307.600,151.200 307.600 C 150.760 307.600,150.400 307.420,150.400 307.200 C 150.400 306.980,150.040 306.800,149.600 306.800 C 149.160 306.800,148.800 306.620,148.800 306.400 C 148.800 306.180,148.440 306.000,148.000 306.000 C 147.560 306.000,147.200 305.820,147.200 305.600 C 147.200 305.380,146.840 305.200,146.400 305.200 C 145.960 305.200,145.600 305.020,145.600 304.800 C 145.600 304.580,145.240 304.400,144.800 304.400 C 144.360 304.400,144.000 304.220,144.000 304.000 C 144.000 303.780,143.706 303.600,143.347 303.600 C 142.988 303.600,142.403 303.284,142.047 302.897 C 141.691 302.511,140.860 301.926,140.200 301.597 C 139.540 301.269,138.651 300.685,138.225 300.300 C 137.798 299.915,137.213 299.600,136.925 299.600 C 136.636 299.600,136.400 299.420,136.400 299.200 C 136.400 298.980,136.175 298.800,135.900 298.800 C 135.625 298.799,134.877 298.349,134.238 297.800 C 133.599 297.250,132.932 296.800,132.756 296.800 C 132.580 296.800,131.986 296.350,131.436 295.800 C 130.886 295.250,130.249 294.800,130.019 294.800 C 129.790 294.800,128.934 294.170,128.118 293.400 C 127.301 292.630,126.430 292.000,126.181 292.000 C 125.932 292.000,125.183 291.415,124.516 290.700 C 123.183 289.272,121.708 288.000,121.383 288.000 C 120.863 288.000,108.000 274.382,108.000 273.831 C 108.000 273.685,107.816 273.349,107.592 273.083 C 105.752 270.903,105.201 270.144,105.200 269.788 C 105.200 269.562,104.840 269.117,104.400 268.800 C 103.960 268.483,103.600 268.038,103.599 267.812 C 103.599 267.585,103.059 266.770,102.400 266.000 C 101.741 265.230,101.201 264.375,101.201 264.100 C 101.200 263.825,101.020 263.600,100.800 263.600 C 100.580 263.600,100.400 263.364,100.400 263.075 C 100.400 262.787,100.085 262.202,99.700 261.775 C 99.315 261.349,98.731 260.460,98.403 259.800 C 98.074 259.140,97.489 258.309,97.103 257.953 C 96.716 257.597,96.400 257.012,96.400 256.653 C 96.400 256.294,96.220 256.000,96.000 256.000 C 95.780 256.000,95.600 255.640,95.600 255.200 C 95.600 254.760,95.420 254.400,95.200 254.400 C 94.980 254.400,94.800 254.040,94.800 253.600 C 94.800 253.160,94.620 252.800,94.400 252.800 C 94.180 252.800,94.000 252.440,94.000 252.000 C 94.000 251.560,93.820 251.200,93.600 251.200 C 93.380 251.200,93.200 250.840,93.200 250.400 C 93.200 249.960,93.020 249.600,92.800 249.600 C 92.580 249.600,92.400 249.240,92.400 248.800 C 92.400 248.360,92.220 248.000,92.000 248.000 C 91.780 248.000,91.600 247.647,91.600 247.215 C 91.600 245.123,89.730 241.583,88.800 241.912 " stroke="none" fill="#2cb343" fill-rule="evenodd"></path><path id="path2" d="M21.300 108.198 C 21.025 108.511,20.800 109.029,20.800 109.350 C 20.800 109.671,20.664 109.993,20.498 110.067 C 20.332 110.140,19.593 111.460,18.856 113.000 C 18.119 114.540,17.355 116.113,17.158 116.495 C 16.961 116.877,16.800 117.462,16.800 117.795 C 16.800 118.128,16.620 118.400,16.400 118.400 C 16.180 118.400,16.000 118.760,16.000 119.200 C 16.000 119.640,15.820 120.000,15.600 120.000 C 15.380 120.000,15.200 120.349,15.200 120.776 C 15.200 121.203,15.020 121.664,14.800 121.800 C 14.580 121.936,14.400 122.487,14.400 123.024 C 14.400 123.561,14.220 124.000,14.000 124.000 C 13.780 124.000,13.600 124.360,13.600 124.800 C 13.600 125.240,13.420 125.600,13.200 125.600 C 12.980 125.600,12.800 126.039,12.800 126.576 C 12.800 127.113,12.620 127.664,12.400 127.800 C 12.180 127.936,12.000 128.487,12.000 129.024 C 12.000 129.561,11.859 130.000,11.687 130.000 C 11.515 130.000,11.125 130.855,10.820 131.900 C 10.515 132.945,10.132 134.070,9.970 134.400 C 9.409 135.538,8.400 139.294,8.400 140.246 C 8.400 140.771,8.220 141.200,8.000 141.200 C 7.780 141.200,7.600 141.830,7.600 142.600 C 7.600 143.370,7.420 144.000,7.200 144.000 C 6.980 144.000,6.800 144.529,6.800 145.176 C 6.800 145.823,6.620 146.464,6.400 146.600 C 6.180 146.736,6.000 147.467,6.000 148.224 C 6.000 148.981,5.820 149.600,5.600 149.600 C 5.380 149.600,5.200 150.320,5.200 151.200 C 5.200 152.080,5.020 152.800,4.800 152.800 C 4.580 152.800,4.400 153.509,4.400 154.376 C 4.400 155.243,4.220 156.064,4.000 156.200 C 3.780 156.336,3.600 157.247,3.600 158.224 C 3.600 159.201,3.420 160.000,3.200 160.000 C 2.980 160.000,2.800 160.889,2.800 161.976 C 2.800 163.063,2.620 164.064,2.400 164.200 C 2.180 164.336,2.000 165.416,2.000 166.600 C 2.000 167.784,1.820 168.864,1.600 169.000 C 1.380 169.136,1.200 170.482,1.200 171.990 C 1.200 173.829,1.035 174.788,0.700 174.900 C -0.032 175.144,-0.032 224.856,0.700 225.100 C 1.035 225.212,1.200 226.171,1.200 228.010 C 1.200 229.518,1.380 230.864,1.600 231.000 C 1.820 231.136,2.000 232.216,2.000 233.400 C 2.000 234.584,2.180 235.664,2.400 235.800 C 2.620 235.936,2.800 236.937,2.800 238.024 C 2.800 239.111,2.980 240.000,3.200 240.000 C 3.420 240.000,3.600 240.799,3.600 241.776 C 3.600 242.753,3.780 243.664,4.000 243.800 C 4.220 243.936,4.400 244.757,4.400 245.624 C 4.400 246.491,4.580 247.200,4.800 247.200 C 5.020 247.200,5.200 247.920,5.200 248.800 C 5.200 249.680,5.380 250.400,5.600 250.400 C 5.820 250.400,6.000 251.019,6.000 251.776 C 6.000 252.533,6.180 253.264,6.400 253.400 C 6.620 253.536,6.800 254.166,6.800 254.800 C 6.800 255.434,6.980 256.064,7.200 256.200 C 7.420 256.336,7.600 256.977,7.600 257.624 C 7.600 258.271,7.780 258.800,8.000 258.800 C 8.220 258.800,8.400 259.241,8.400 259.780 C 8.400 260.960,11.245 269.744,11.688 269.933 C 11.860 270.007,12.000 270.491,12.000 271.010 C 12.000 271.528,12.180 272.064,12.400 272.200 C 12.620 272.336,12.800 272.887,12.800 273.424 C 12.800 273.961,12.980 274.400,13.200 274.400 C 13.420 274.400,13.600 274.760,13.600 275.200 C 13.600 275.640,13.780 276.000,14.000 276.000 C 14.220 276.000,14.400 276.439,14.400 276.976 C 14.400 277.513,14.580 278.064,14.800 278.200 C 15.020 278.336,15.200 278.797,15.200 279.224 C 15.200 279.651,15.380 280.000,15.600 280.000 C 15.820 280.000,16.000 280.360,16.000 280.800 C 16.000 281.240,16.180 281.600,16.400 281.600 C 16.620 281.600,16.800 281.872,16.800 282.205 C 16.800 282.538,16.962 283.123,17.159 283.505 C 17.357 283.887,18.300 285.820,19.255 287.800 C 20.211 289.780,21.129 291.460,21.296 291.533 C 21.463 291.607,21.600 292.012,21.600 292.433 C 21.600 292.855,21.780 293.200,22.000 293.200 C 22.220 293.200,22.400 293.560,22.400 294.000 C 22.400 295.859,23.580 295.065,35.800 284.984 C 36.680 284.258,41.090 280.651,45.600 276.970 C 50.110 273.288,55.240 269.079,57.000 267.616 C 58.760 266.153,64.160 261.736,69.000 257.800 C 73.840 253.864,78.447 250.094,79.237 249.422 C 80.028 248.750,81.018 247.929,81.437 247.599 C 81.857 247.268,83.550 245.905,85.200 244.570 C 86.850 243.234,88.515 242.026,88.900 241.883 C 89.639 241.611,89.883 240.400,89.200 240.400 C 88.980 240.400,88.800 239.860,88.800 239.200 C 88.800 238.540,88.620 238.000,88.400 238.000 C 88.180 238.000,88.000 237.460,88.000 236.800 C 88.000 236.140,87.820 235.600,87.600 235.600 C 87.380 235.600,87.200 235.161,87.200 234.624 C 87.200 234.087,87.020 233.536,86.800 233.400 C 86.580 233.264,86.400 232.544,86.400 231.800 C 86.400 231.056,86.220 230.336,86.000 230.200 C 85.780 230.064,85.600 229.333,85.600 228.576 C 85.600 227.819,85.420 227.200,85.200 227.200 C 84.980 227.200,84.800 226.480,84.800 225.600 C 84.800 224.720,84.620 224.000,84.400 224.000 C 84.180 224.000,84.000 223.111,84.000 222.024 C 84.000 220.937,83.820 219.936,83.600 219.800 C 83.380 219.664,83.200 218.393,83.200 216.976 C 83.200 215.525,83.025 214.400,82.800 214.400 C 82.558 214.400,82.400 212.675,82.400 210.024 C 82.400 207.537,82.227 205.540,82.000 205.400 C 81.767 205.256,81.600 203.004,81.600 200.000 C 81.600 196.996,81.767 194.744,82.000 194.600 C 82.227 194.460,82.400 192.470,82.400 190.000 C 82.400 187.530,82.573 185.540,82.800 185.400 C 83.020 185.264,83.200 184.094,83.200 182.800 C 83.200 181.506,83.380 180.336,83.600 180.200 C 83.820 180.064,84.000 179.063,84.000 177.976 C 84.000 176.889,84.180 176.000,84.400 176.000 C 84.620 176.000,84.800 175.280,84.800 174.400 C 84.800 173.520,84.980 172.800,85.200 172.800 C 85.420 172.800,85.600 172.181,85.600 171.424 C 85.600 170.667,85.780 169.936,86.000 169.800 C 86.220 169.664,86.400 168.933,86.400 168.176 C 86.400 167.419,86.580 166.800,86.800 166.800 C 87.020 166.800,87.200 166.260,87.200 165.600 C 87.200 164.940,87.380 164.400,87.600 164.400 C 88.437 164.400,88.040 161.417,87.127 160.847 C 86.327 160.348,71.660 148.512,71.200 147.995 C 70.925 147.686,60.557 139.188,59.254 138.204 C 58.674 137.766,56.490 135.994,54.400 134.265 C 52.310 132.537,50.240 130.825,49.800 130.461 C 49.360 130.098,43.060 124.943,35.800 119.008 C 28.540 113.072,22.540 108.077,22.467 107.908 C 22.271 107.455,21.865 107.556,21.300 108.198 " stroke="none" fill="#fbbb04" fill-rule="evenodd"></path><path id="path3" d="M203.600 202.200 L 203.600 242.400 256.794 242.400 L 309.988 242.400 309.194 244.415 C 308.757 245.523,308.400 246.783,308.400 247.215 C 308.400 247.647,308.220 248.000,308.000 248.000 C 307.780 248.000,307.600 248.360,307.600 248.800 C 307.600 249.240,307.420 249.600,307.200 249.600 C 306.980 249.600,306.800 249.960,306.800 250.400 C 306.800 250.840,306.620 251.200,306.400 251.200 C 306.180 251.200,306.000 251.560,306.000 252.000 C 306.000 252.440,305.820 252.800,305.600 252.800 C 305.380 252.800,305.200 253.160,305.200 253.600 C 305.200 254.040,305.020 254.400,304.800 254.400 C 304.580 254.400,304.400 254.760,304.400 255.200 C 304.400 255.640,304.220 256.000,304.000 256.000 C 303.780 256.000,303.600 256.294,303.600 256.653 C 303.600 257.012,303.284 257.597,302.897 257.953 C 302.511 258.309,301.926 259.140,301.597 259.800 C 301.269 260.460,300.685 261.349,300.300 261.775 C 299.915 262.202,299.600 262.787,299.600 263.075 C 299.600 263.364,299.420 263.600,299.200 263.600 C 298.980 263.600,298.800 263.825,298.800 264.100 C 298.799 264.375,298.349 265.123,297.800 265.762 C 297.250 266.401,296.800 267.068,296.800 267.244 C 296.800 267.420,296.350 268.014,295.800 268.564 C 295.250 269.114,294.800 269.707,294.800 269.882 C 294.799 270.157,294.414 270.675,292.468 273.018 C 292.277 273.248,292.049 273.627,291.961 273.861 C 291.301 275.603,275.603 291.301,273.861 291.961 C 273.627 292.049,273.248 292.277,273.018 292.468 C 270.654 294.432,270.145 294.799,269.788 294.800 C 269.562 294.800,269.117 295.160,268.800 295.600 C 268.483 296.040,268.038 296.400,267.812 296.401 C 267.585 296.401,266.770 296.941,266.000 297.600 C 265.230 298.259,264.375 298.799,264.100 298.799 C 263.825 298.800,263.600 298.980,263.600 299.200 C 263.600 299.420,263.330 299.600,263.000 299.600 C 262.670 299.600,262.400 299.780,262.400 300.000 C 262.400 300.220,262.130 300.400,261.800 300.400 C 261.470 300.400,261.200 300.559,261.200 300.753 C 261.200 300.948,260.824 301.205,260.364 301.325 C 259.771 301.480,259.626 301.710,259.864 302.119 C 260.200 302.694,266.619 308.041,282.800 321.222 C 289.174 326.415,296.389 332.329,298.400 334.010 C 299.390 334.838,302.825 337.649,306.033 340.258 C 318.934 350.746,320.230 351.808,321.000 352.517 C 321.440 352.922,322.559 353.826,323.488 354.527 C 324.416 355.227,325.181 356.025,325.188 356.300 C 325.202 356.872,326.000 356.996,326.000 356.427 C 326.000 356.222,326.371 355.936,326.824 355.792 C 327.277 355.649,328.443 354.736,329.414 353.765 C 330.385 352.794,331.355 352.000,331.570 352.000 C 331.886 352.000,334.997 348.969,341.800 342.035 C 342.020 341.811,344.225 339.647,346.700 337.226 C 349.175 334.806,351.200 332.664,351.200 332.466 C 351.200 332.269,352.190 331.077,353.400 329.818 C 354.610 328.558,355.600 327.383,355.600 327.206 C 355.600 327.029,356.141 326.281,356.801 325.542 C 358.531 323.610,358.800 323.264,358.800 322.977 C 358.800 322.836,359.340 322.217,360.000 321.600 C 360.660 320.983,361.200 320.280,361.200 320.036 C 361.200 319.792,361.740 319.028,362.400 318.337 C 363.060 317.646,363.600 316.878,363.600 316.629 C 363.600 316.380,363.960 315.917,364.400 315.600 C 364.840 315.283,365.200 314.743,365.200 314.400 C 365.200 314.057,365.560 313.517,366.000 313.200 C 366.440 312.883,366.800 312.343,366.800 312.000 C 366.800 311.657,367.160 311.117,367.600 310.800 C 368.040 310.483,368.400 309.943,368.400 309.600 C 368.400 309.257,368.760 308.717,369.200 308.400 C 369.640 308.083,370.000 307.671,370.000 307.484 C 370.000 307.297,370.540 306.359,371.200 305.400 C 371.860 304.441,372.400 303.478,372.400 303.261 C 372.400 303.044,372.535 302.807,372.700 302.733 C 373.174 302.523,375.200 298.562,375.200 297.846 C 375.200 297.491,375.380 297.200,375.600 297.200 C 375.820 297.200,376.000 296.880,376.000 296.488 C 376.000 296.097,376.360 295.517,376.800 295.200 C 377.240 294.883,377.600 294.303,377.600 293.912 C 377.600 293.520,377.780 293.200,378.000 293.200 C 378.220 293.200,378.400 292.840,378.400 292.400 C 378.400 291.960,378.580 291.600,378.800 291.600 C 379.020 291.600,379.200 291.255,379.200 290.833 C 379.200 290.412,379.336 290.007,379.502 289.933 C 379.668 289.860,380.407 288.540,381.144 287.000 C 381.881 285.460,382.645 283.887,382.842 283.505 C 383.039 283.123,383.200 282.538,383.200 282.205 C 383.200 281.872,383.380 281.600,383.600 281.600 C 383.820 281.600,384.000 281.240,384.000 280.800 C 384.000 280.360,384.147 280.000,384.328 280.000 C 384.508 280.000,384.900 279.100,385.200 278.000 C 385.500 276.900,385.892 276.000,386.072 276.000 C 386.253 276.000,386.400 275.640,386.400 275.200 C 386.400 274.760,386.580 274.400,386.800 274.400 C 387.020 274.400,387.200 273.961,387.200 273.424 C 387.200 272.887,387.380 272.336,387.600 272.200 C 387.820 272.064,388.000 271.528,388.000 271.010 C 388.000 270.491,388.140 270.007,388.312 269.933 C 388.755 269.744,391.600 260.960,391.600 259.780 C 391.600 259.241,391.780 258.800,392.000 258.800 C 392.220 258.800,392.400 258.170,392.400 257.400 C 392.400 256.630,392.580 256.000,392.800 256.000 C 393.020 256.000,393.200 255.370,393.200 254.600 C 393.200 253.830,393.380 253.200,393.600 253.200 C 393.820 253.200,394.000 252.570,394.000 251.800 C 394.000 251.030,394.180 250.400,394.400 250.400 C 394.620 250.400,394.800 249.680,394.800 248.800 C 394.800 247.920,394.980 247.200,395.200 247.200 C 395.420 247.200,395.600 246.401,395.600 245.424 C 395.600 244.447,395.780 243.536,396.000 243.400 C 396.220 243.264,396.400 242.443,396.400 241.576 C 396.400 240.709,396.580 240.000,396.800 240.000 C 397.020 240.000,397.200 239.111,397.200 238.024 C 397.200 236.937,397.380 235.936,397.600 235.800 C 397.820 235.664,398.000 234.584,398.000 233.400 C 398.000 232.216,398.180 231.136,398.400 231.000 C 398.620 230.864,398.800 229.518,398.800 228.010 C 398.800 226.171,398.965 225.212,399.300 225.100 C 399.693 224.969,399.800 219.591,399.800 200.000 C 399.800 180.409,399.693 175.031,399.300 174.900 C 398.964 174.788,398.800 173.824,398.800 171.967 C 398.800 170.389,398.628 169.200,398.400 169.200 C 398.178 169.200,398.000 168.133,398.000 166.800 C 398.000 165.467,397.822 164.400,397.600 164.400 C 397.380 164.400,397.200 163.860,397.200 163.200 L 397.200 162.000 300.400 162.000 L 203.600 162.000 203.600 202.200 " stroke="none" fill="#548cfc" fill-rule="evenodd"></path></g></svg>